<svg width="35" height="35" viewBox="0 0 35 35" fill="none" xmlns="http://www.w3.org/2000/svg">
<path d="M17.375 26.375C17.7892 26.375 18.125 26.0392 18.125 25.625C18.125 25.2108 17.7892 24.875 17.375 24.875C16.9608 24.875 16.625 25.2108 16.625 25.625C16.625 26.0392 16.9608 26.375 17.375 26.375Z" fill="#FF4F42"/>
<path d="M17.375 33.875C26.4877 33.875 33.875 26.4877 33.875 17.375C33.875 8.2623 26.4877 0.875 17.375 0.875C8.2623 0.875 0.875 8.2623 0.875 17.375C0.875 26.4877 8.2623 33.875 17.375 33.875Z" stroke="#FF4F42" stroke-miterlimit="10" stroke-linecap="round" stroke-linejoin="round"/>
<path d="M17.375 8.375V20.375" stroke="#FF4F42" stroke-miterlimit="10" stroke-linecap="round" stroke-linejoin="round"/>
<path d="M17.375 26.375C17.7892 26.375 18.125 26.0392 18.125 25.625C18.125 25.2108 17.7892 24.875 17.375 24.875C16.9608 24.875 16.625 25.2108 16.625 25.625C16.625 26.0392 16.9608 26.375 17.375 26.375Z" stroke="#FF4F42" stroke-miterlimit="10" stroke-linecap="round" stroke-linejoin="round"/>
</svg>
